<svg width="1466" height="718" viewBox="0 0 1466 718" fill="none" xmlns="http://www.w3.org/2000/svg">
<mask id="mask0_405_27" style="mask-type:alpha" maskUnits="userSpaceOnUse" x="0" y="0" width="1466" height="718">
<path d="M0 88.5864H1464.98V620.546H0V88.5864Z" fill="#171D13"/>
<path d="M1.01734 67.8288C1.01734 67.8288 38.74 51.1836 73.3621 50.0223C108.501 48.861 138.472 50.0223 181.363 55.8288C239.755 63.5707 352.406 94.9256 412.349 77.8933C472.292 60.861 474.876 60.0868 505.364 49.2481C539.469 36.861 608.714 12.0867 694.494 13.248C785.959 14.4093 951.835 77.5062 1020.05 74.4094C1027.28 74.0223 1054.15 71.3126 1074.3 66.6675C1093.94 62.0223 1122.88 51.9577 1162.15 48.4739C1178.69 46.9255 1205.04 44.2158 1235.53 44.99C1243.28 45.3771 1268.09 46.5384 1297.54 51.1835C1326.99 55.8287 1354.38 63.1836 1379.19 65.5061C1432.41 69.7642 1466 63.5706 1466 63.5706V105.377L1.01735 105.377L1.01734 67.8288ZM118.319 61.6352C121.937 65.5062 128.654 63.1836 140.539 63.1836C152.425 63.1836 172.061 67.8288 170.511 67.4417C168.961 67.0546 154.492 61.6352 139.506 60.0869C124.003 58.1514 115.219 57.7643 118.319 61.6352ZM213.401 72.0869C213.401 72.0869 225.803 72.8611 242.339 75.5708C258.875 78.6675 295.564 86.4095 320.368 89.1192C362.741 93.3773 402.014 89.1192 398.397 88.7321C394.263 88.345 348.789 91.0547 307.449 84.474C290.397 81.7643 259.392 75.9579 243.372 74.0224C226.32 71.6998 213.401 72.0869 213.401 72.0869ZM508.981 72.474C500.197 75.1836 577.709 54.2803 604.58 48.861C615.432 46.5384 636.618 42.6674 656.255 41.119C676.408 39.5706 702.245 39.5706 701.729 39.1835C701.729 38.4093 671.757 36.0867 643.853 39.1835C615.948 42.2803 616.982 43.4416 604.58 45.3771C584.943 48.4739 517.766 69.7643 508.981 72.474ZM437.153 78.6675C436.12 78.6675 441.287 80.2159 461.957 74.4095C482.627 68.603 496.579 60.861 497.613 60.0868C498.646 59.6997 479.527 67.0546 463.507 71.6998C448.005 76.3449 437.67 78.6675 437.153 78.6675ZM3.60108 82.1514C4.11783 81.7643 13.4191 77.8934 28.4049 72.474C43.3906 67.0546 64.0607 61.6353 63.0272 62.0223C61.9936 62.0223 44.9409 64.3449 24.7878 71.6998C4.63457 79.0547 3.08433 82.5385 3.60108 82.1514ZM1304.26 60.4739C1303.74 61.2481 1314.08 61.2481 1327.51 65.119C1340.95 68.99 1355.42 71.3126 1367.82 72.861C1388.49 75.9578 1428.28 72.4739 1426.21 72.0868C1424.66 71.6997 1383.84 73.2481 1361.62 69.3771C1350.25 67.4416 1349.21 67.4416 1332.16 63.1836C1315.11 58.9255 1304.77 59.3126 1304.26 60.4739ZM1088.77 69.7642C1086.71 70.1513 1070.69 75.9578 1045.37 79.8288C1020.05 84.0869 999.376 81.7643 999.376 82.9256C999.376 84.0869 1004.54 86.4094 1031.41 84.0869C1058.29 81.7643 1090.84 69.3771 1088.77 69.7642ZM1096.01 79.4417C1094.97 79.0546 1078.44 84.474 1066.55 86.0223C1054.67 87.1836 1056.73 87.9578 1056.73 88.3449C1056.73 88.732 1062.42 89.1191 1070.69 87.5707C1079.47 85.6352 1097.04 79.8288 1096.01 79.4417ZM982.323 88.3449C981.806 87.5707 964.237 85.2482 953.385 81.3772C942.533 77.5062 944.084 79.0546 943.567 79.4417C943.05 79.8288 947.701 82.5385 955.969 84.474C964.237 86.7965 982.84 89.1191 982.323 88.3449ZM1128.05 62.4094C1128.56 61.2481 1126.5 60.4739 1118.23 63.1836C1109.96 65.8933 1104.79 68.2158 1106.86 67.8287C1108.93 67.4416 1111.51 66.2804 1119.78 64.732C1128.56 63.1836 1127.53 63.5707 1128.05 62.4094ZM1287.72 57.3771C1288.76 57.3771 1276.87 54.2803 1270.67 53.8932C1264.47 53.5061 1260.33 53.5061 1260.33 54.6674C1260.33 55.8287 1260.85 56.6029 1268.6 56.2158C1276.87 55.8287 1286.69 57.3771 1287.72 57.3771ZM679.508 23.6996C680.025 23.3125 691.91 24.8609 718.265 24.8609C744.102 24.8609 788.542 34.1513 807.145 38.4093C825.748 42.6674 755.47 23.3125 721.882 22.5383C688.293 21.7641 678.992 24.0867 679.508 23.6996Z" fill="#171D13"/>
<path d="M72.8455 35.6997C73.3622 36.0868 96.616 34.5384 110.051 35.6997C147.774 38.4094 197.899 48.0868 195.832 46.9255C193.765 45.7642 125.037 34.9255 107.984 34.1513C82.6638 32.6029 72.3287 35.6997 72.8455 35.6997Z" fill="#171D13"/>
<path d="M290.913 67.4417C291.947 67.8288 314.167 71.3127 340.004 72.0869C365.842 72.8611 405.631 69.7643 403.564 70.1514C402.014 70.5385 373.076 77.1191 334.837 74.7966C296.598 72.474 289.88 67.0546 290.913 67.4417Z" fill="#171D13"/>
<path d="M409.249 53.5062C409.766 53.8933 398.914 57.3772 392.713 57.7642C386.512 58.1513 382.378 57.7642 382.378 56.603C382.378 55.4417 382.895 54.6675 390.646 55.0546C399.431 55.4417 408.732 53.1191 409.249 53.5062Z" fill="#171D13"/>
<path d="M427.335 64.3449C427.335 64.732 450.072 59.6997 459.89 55.8288C469.708 52.3449 491.928 43.8287 491.412 43.8287C490.895 43.4416 469.708 50.0223 458.857 53.8933C448.005 57.7642 427.335 63.9578 427.335 64.3449Z" fill="#171D13"/>
<path d="M667.623 2.02214C668.14 2.40924 691.394 0.860844 704.829 2.02214C742.552 4.73182 792.676 14.4093 790.609 13.248C788.542 12.0867 719.815 1.24794 702.762 0.473747C677.441 -1.07464 667.106 1.63504 667.623 2.02214Z" fill="#171D13"/>
<path d="M1249.48 30.6673C1249.48 30.6673 1243.28 31.8286 1234.5 31.0544C1225.71 30.2802 1204.53 27.5706 1192.12 28.3448C1170.42 29.8931 1153.88 38.7964 1155.95 38.4093C1158.02 38.4093 1178.17 29.8931 1200.39 31.0544C1209.69 31.4415 1226.75 32.9899 1235.01 32.6028C1243.28 32.2157 1249.48 30.6673 1249.48 30.6673Z" fill="#171D13"/>
<path d="M1075.85 56.6029C1074.82 56.2158 1065.52 59.6997 1053.63 60.861C1041.75 61.6352 1042.78 62.0223 1042.78 62.7965C1042.78 63.1836 1052.08 64.3449 1060.35 62.7965C1068.62 60.861 1076.89 56.99 1075.85 56.6029Z" fill="#171D13"/>
<path d="M1385.39 54.2803C1385.39 54.6674 1363.17 54.2803 1350.76 52.3448C1338.36 50.4093 1324.93 44.99 1324.93 44.6029C1324.93 44.2158 1338.88 47.6996 1351.28 50.0222C1363.17 52.3448 1384.87 53.8932 1385.39 54.2803Z" fill="#171D13"/>
<path d="M1464.98 649.699C1464.98 649.699 1427.26 666.345 1392.64 667.506C1357.5 668.667 1327.53 667.506 1284.64 661.699C1226.24 653.957 1113.59 622.603 1053.65 639.635C993.708 656.667 991.124 657.441 960.636 668.28C926.53 680.667 857.286 705.442 771.506 704.28C680.041 703.119 514.165 640.022 445.954 643.119C438.72 643.506 411.849 646.216 391.696 650.861C372.059 655.506 343.121 665.57 303.848 669.054C287.312 670.603 260.958 673.312 230.47 672.538C222.719 672.151 197.915 670.99 168.46 666.345C139.005 661.699 111.618 654.345 86.8138 652.022C33.5887 647.764 0 653.957 0 653.957V612.151H1464.98V649.699ZM1347.68 655.893C1344.06 652.022 1337.35 654.345 1325.46 654.345C1313.58 654.345 1293.94 649.699 1295.49 650.086C1297.04 650.474 1311.51 655.893 1326.49 657.441C1342 659.377 1350.78 659.764 1347.68 655.893ZM1252.6 645.441C1252.6 645.441 1240.2 644.667 1223.66 641.957C1207.13 638.861 1170.44 631.119 1145.63 628.409C1103.26 624.151 1063.99 628.409 1067.6 628.796C1071.74 629.183 1117.21 626.474 1158.55 633.054C1175.6 635.764 1206.61 641.57 1222.63 643.506C1239.68 645.828 1252.6 645.441 1252.6 645.441ZM957.019 645.054C965.803 642.345 888.291 663.248 861.42 668.667C850.568 670.99 829.382 674.861 809.745 676.409C789.592 677.958 763.755 677.958 764.271 678.345C764.271 679.119 794.243 681.441 822.147 678.345C850.052 675.248 849.018 674.087 861.42 672.151C881.057 669.054 948.234 647.764 957.019 645.054ZM1028.85 638.861C1029.88 638.861 1024.71 637.312 1004.04 643.119C983.373 648.925 969.421 656.667 968.387 657.441C967.354 657.828 986.473 650.474 1002.49 645.828C1017.99 641.183 1028.33 638.861 1028.85 638.861ZM1462.4 635.377C1461.88 635.764 1452.58 639.635 1437.59 645.054C1422.61 650.474 1401.94 655.893 1402.97 655.506C1404.01 655.506 1421.06 653.183 1441.21 645.828C1461.37 638.474 1462.92 634.99 1462.4 635.377ZM161.742 657.054C162.259 656.28 151.924 656.28 138.489 652.409C125.053 648.538 110.584 646.216 98.1823 644.667C77.5123 641.57 37.7227 645.054 39.7896 645.441C41.3399 645.828 82.163 644.28 104.383 648.151C115.752 650.086 116.785 650.086 133.838 654.345C150.891 658.603 161.226 658.216 161.742 657.054ZM377.227 647.764C379.294 647.377 395.313 641.57 420.633 637.699C445.954 633.441 466.624 635.764 466.624 634.603C466.624 633.441 461.457 631.119 434.586 633.441C407.715 635.764 375.16 648.151 377.227 647.764ZM369.992 638.086C371.026 638.474 387.562 633.054 399.447 631.506C411.332 630.344 409.265 629.57 409.265 629.183C409.265 628.796 403.581 628.409 395.313 629.957C386.528 631.893 368.959 637.699 369.992 638.086ZM483.677 629.183C484.194 629.957 501.763 632.28 512.615 636.151C523.466 640.022 521.916 638.474 522.433 638.086C522.95 637.699 518.299 634.99 510.031 633.054C501.763 630.732 483.16 628.409 483.677 629.183ZM337.954 655.119C337.437 656.28 339.504 657.054 347.772 654.345C356.04 651.635 361.207 649.312 359.14 649.699C357.073 650.086 354.49 651.248 346.222 652.796C337.437 654.345 338.47 653.957 337.954 655.119ZM178.278 660.151C177.245 660.151 189.13 663.248 195.331 663.635C201.532 664.022 205.666 664.022 205.666 662.861C205.666 661.699 205.149 660.925 197.398 661.312C189.13 661.699 179.312 660.151 178.278 660.151ZM786.492 693.829C785.975 694.216 774.09 692.667 747.735 692.667C721.898 692.667 677.458 683.377 658.855 679.119C640.252 674.861 710.529 694.216 744.118 694.99C777.707 695.764 787.008 693.441 786.492 693.829Z" fill="#171D13"/>
<path d="M1393.15 681.828C1392.64 681.441 1369.38 682.99 1355.95 681.828C1318.23 679.119 1268.1 669.441 1270.17 670.603C1272.24 671.764 1340.96 682.603 1358.02 683.377C1383.34 684.925 1393.67 681.828 1393.15 681.828Z" fill="#171D13"/>
<path d="M1175.09 650.086C1174.05 649.699 1151.83 646.216 1126 645.441C1100.16 644.667 1060.37 647.764 1062.44 647.377C1063.99 646.99 1092.92 640.409 1131.16 642.732C1169.4 645.054 1176.12 650.474 1175.09 650.086Z" fill="#171D13"/>
<path d="M1056.75 664.022C1056.23 663.635 1067.09 660.151 1073.29 659.764C1079.49 659.377 1083.62 659.764 1083.62 660.925C1083.62 662.087 1083.11 662.861 1075.35 662.474C1066.57 662.087 1057.27 664.409 1056.75 664.022Z" fill="#171D13"/>
<path d="M1038.66 653.183C1038.66 652.796 1015.93 657.828 1006.11 661.699C996.292 665.183 974.071 673.699 974.588 673.699C975.105 674.087 996.292 667.506 1007.14 663.635C1017.99 659.764 1038.66 653.57 1038.66 653.183Z" fill="#171D13"/>
<path d="M798.377 715.506C797.86 715.119 774.606 716.667 761.171 715.506C723.448 712.796 673.324 703.119 675.391 704.28C677.458 705.442 746.185 716.28 763.238 717.054C788.558 718.603 798.893 715.893 798.377 715.506Z" fill="#171D13"/>
<path d="M216.518 686.861C216.518 686.861 222.719 685.7 231.503 686.474C240.288 687.248 261.475 689.958 273.877 689.183C295.58 687.635 312.116 678.732 310.049 679.119C307.982 679.119 287.829 687.635 265.609 686.474C256.307 686.087 239.255 684.538 230.987 684.925C222.719 685.312 216.518 686.861 216.518 686.861Z" fill="#171D13"/>
<path d="M390.145 660.925C391.179 661.312 400.48 657.828 412.365 656.667C424.251 655.893 423.217 655.506 423.217 654.732C423.217 654.345 413.916 653.183 405.648 654.732C397.38 656.667 389.112 660.538 390.145 660.925Z" fill="#171D13"/>
<path d="M80.6128 663.248C80.6128 662.861 102.833 663.248 115.235 665.183C127.637 667.119 141.072 672.538 141.072 672.925C141.072 673.312 127.12 669.828 114.718 667.506C102.833 665.183 81.1295 663.635 80.6128 663.248Z" fill="#171D13"/>
</mask>
<g mask="url(#mask0_405_27)">
<rect x="24.1815" y="-156" width="1443.83" height="884" fill="#2E4B19" fill-opacity="0.42"/>
</g>
</svg>
