<svg width="67" height="144" viewBox="0 0 67 144" fill="none" xmlns="http://www.w3.org/2000/svg">
<mask id="mask0_410_199" style="mask-type:alpha" maskUnits="userSpaceOnUse" x="0" y="0" width="67" height="144">
<rect width="67" height="144" fill="#D9D9D9"/>
</mask>
<g mask="url(#mask0_410_199)">
<rect x="-242.5" y="0.5" width="297" height="126" rx="21.5" fill="#F1F6E8" stroke="#79C117"/>
<path d="M-110.152 44.168V50.872C-110.152 51.864 -109.944 52.5733 -109.528 53C-109.112 53.416 -108.547 53.624 -107.832 53.624C-107.107 53.624 -106.573 53.384 -106.232 52.904C-105.88 52.4133 -105.704 51.736 -105.704 50.872V44.168H-103.8V51.016C-103.8 51.5707 -103.875 52.0933 -104.024 52.584C-104.163 53.0747 -104.397 53.5067 -104.728 53.88C-105.059 54.2533 -105.496 54.552 -106.04 54.776C-106.584 54.9893 -107.251 55.096 -108.04 55.096C-108.797 55.096 -109.432 54.9893 -109.944 54.776C-110.445 54.552 -110.856 54.2533 -111.176 53.88C-111.485 53.5067 -111.709 53.0747 -111.848 52.584C-111.976 52.0933 -112.04 51.5707 -112.04 51.016V44.168H-110.152ZM-96.9531 55V49.832C-96.9531 49.384 -97.0331 49.0267 -97.1931 48.76C-97.3531 48.4827 -97.6251 48.344 -98.0091 48.344C-98.2545 48.344 -98.4945 48.408 -98.7291 48.536C-98.9531 48.6533 -99.1558 48.8293 -99.3371 49.064C-99.5185 49.2987 -99.6678 49.5867 -99.7851 49.928C-99.8918 50.2587 -99.9451 50.632 -99.9451 51.048V55H-101.769V50.968C-101.769 50.328 -101.812 49.7947 -101.897 49.368C-101.982 48.9307 -102.073 48.5787 -102.169 48.312C-102.286 48.0027 -102.414 47.752 -102.553 47.56L-101.113 46.984C-101.006 47.1013 -100.9 47.2453 -100.793 47.416C-100.708 47.5653 -100.622 47.752 -100.537 47.976C-100.452 48.1893 -100.382 48.4347 -100.329 48.712C-100.052 48.072 -99.6518 47.6133 -99.1291 47.336C-98.6065 47.048 -98.0571 46.904 -97.4811 46.904C-96.6598 46.904 -96.0678 47.1547 -95.7051 47.656C-95.3318 48.1467 -95.1451 48.8133 -95.1451 49.656V55H-96.9531ZM-91.4519 55.064C-92.0172 55.064 -92.4492 54.8987 -92.7479 54.568C-93.0465 54.2267 -93.1959 53.7893 -93.1959 53.256V47.032H-91.3719V53.096C-91.3719 53.3413 -91.3345 53.5067 -91.2599 53.592C-91.1852 53.6773 -91.0732 53.72 -90.9239 53.72C-90.8812 53.72 -90.8385 53.72 -90.7959 53.72C-90.7425 53.72 -90.6945 53.7147 -90.6519 53.704C-90.6092 53.704 -90.5612 53.6987 -90.5079 53.688L-90.3159 54.84C-90.3905 54.8827 -90.4865 54.92 -90.6039 54.952C-90.6999 54.984 -90.8225 55.0107 -90.9719 55.032C-91.1105 55.0533 -91.2705 55.064 -91.4519 55.064ZM-92.2519 43.48C-91.9105 43.48 -91.6492 43.5813 -91.4679 43.784C-91.2865 43.9867 -91.1959 44.248 -91.1959 44.568C-91.1959 44.888 -91.2919 45.1547 -91.4839 45.368C-91.6652 45.5813 -91.9372 45.688 -92.2999 45.688C-92.6412 45.688 -92.9079 45.5867 -93.0999 45.384C-93.2812 45.1707 -93.3719 44.9147 -93.3719 44.616C-93.3719 44.2853 -93.2812 44.0133 -93.0999 43.8C-92.9079 43.5867 -92.6252 43.48 -92.2519 43.48ZM-82.5741 47.032L-82.5421 47.16C-82.5315 47.256 -82.5155 47.384 -82.4941 47.544C-82.4728 47.6933 -82.4568 47.8693 -82.4461 48.072C-82.4248 48.264 -82.4141 48.4613 -82.4141 48.664C-82.4141 49.848 -82.5048 50.8507 -82.6861 51.672C-82.8568 52.4827 -83.1235 53.144 -83.4861 53.656C-83.8381 54.1573 -84.2915 54.52 -84.8461 54.744C-85.3901 54.968 -86.0355 55.08 -86.7821 55.08C-87.6248 55.08 -88.2275 54.84 -88.5901 54.36C-88.9421 53.8693 -89.1181 53.1973 -89.1181 52.344V47.032H-87.2941V52.296C-87.2941 52.744 -87.2141 53.1067 -87.0541 53.384C-86.8941 53.6613 -86.6221 53.8 -86.2381 53.8C-85.8541 53.8 -85.5341 53.656 -85.2781 53.368C-85.0221 53.08 -84.8195 52.7067 -84.6701 52.248C-84.5208 51.7787 -84.4141 51.2507 -84.3501 50.664C-84.2861 50.0667 -84.2541 49.464 -84.2541 48.856C-84.2541 48.632 -84.2648 48.4133 -84.2861 48.2C-84.2968 47.976 -84.3181 47.7787 -84.3501 47.608C-84.3715 47.4373 -84.3875 47.2987 -84.3981 47.192L-84.4301 47.032H-82.5741ZM-81.1275 51.208C-81.1275 50.4933 -81.0315 49.864 -80.8395 49.32C-80.6368 48.776 -80.3648 48.3227 -80.0235 47.96C-79.6715 47.5867 -79.2608 47.3093 -78.7915 47.128C-78.3222 46.936 -77.8155 46.84 -77.2715 46.84C-76.7915 46.84 -76.3862 46.8987 -76.0555 47.016C-75.7142 47.1333 -75.4368 47.2933 -75.2235 47.496C-75.0102 47.6987 -74.8555 47.9387 -74.7595 48.216C-74.6528 48.4933 -74.5995 48.792 -74.5995 49.112C-74.5995 49.496 -74.7062 49.864 -74.9195 50.216C-75.1328 50.5573 -75.4422 50.8613 -75.8475 51.128C-76.2422 51.384 -76.7222 51.592 -77.2875 51.752C-77.8528 51.9013 -78.4875 51.9813 -79.1915 51.992C-79.1595 52.2373 -79.1115 52.472 -79.0475 52.696C-78.9728 52.9093 -78.8715 53.1013 -78.7435 53.272C-78.6048 53.432 -78.4288 53.56 -78.2155 53.656C-78.0022 53.752 -77.7355 53.8 -77.4155 53.8C-77.1808 53.8 -76.9302 53.7733 -76.6635 53.72C-76.3968 53.6667 -76.1515 53.6027 -75.9275 53.528C-75.6608 53.4427 -75.3995 53.3467 -75.1435 53.24L-74.6635 54.376C-74.9408 54.5147 -75.2395 54.6373 -75.5595 54.744C-75.8368 54.84 -76.1568 54.9253 -76.5195 55C-76.8822 55.0747 -77.2662 55.112 -77.6715 55.112C-78.2902 55.112 -78.8182 55.0213 -79.2555 54.84C-79.6928 54.648 -80.0502 54.3813 -80.3275 54.04C-80.6048 53.6987 -80.8075 53.288 -80.9355 52.808C-81.0635 52.328 -81.1275 51.7947 -81.1275 51.208ZM-77.4155 48.088C-77.7675 48.088 -78.0608 48.1733 -78.2955 48.344C-78.5195 48.504 -78.7008 48.7173 -78.8395 48.984C-78.9782 49.24 -79.0795 49.5333 -79.1435 49.864C-79.1968 50.184 -79.2288 50.5093 -79.2395 50.84C-78.7275 50.8187 -78.2955 50.7547 -77.9435 50.648C-77.5808 50.5307 -77.2875 50.392 -77.0635 50.232C-76.8395 50.0613 -76.6795 49.88 -76.5835 49.688C-76.4768 49.496 -76.4235 49.304 -76.4235 49.112C-76.4235 48.8027 -76.5142 48.5573 -76.6955 48.376C-76.8768 48.184 -77.1168 48.088 -77.4155 48.088ZM-69.517 48.696C-69.709 48.696 -69.901 48.744 -70.093 48.84C-70.285 48.936 -70.4557 49.0693 -70.605 49.24C-70.7543 49.4 -70.877 49.5973 -70.973 49.832C-71.069 50.0667 -71.117 50.328 -71.117 50.616V55H-72.941V50.968C-72.941 50.328 -72.9837 49.7947 -73.069 49.368C-73.1543 48.9307 -73.245 48.5787 -73.341 48.312C-73.4583 48.0027 -73.5863 47.752 -73.725 47.56L-72.285 46.984C-72.189 47.1013 -72.0877 47.2453 -71.981 47.416C-71.8957 47.5653 -71.8103 47.7413 -71.725 47.944C-71.6397 48.1467 -71.5703 48.3867 -71.517 48.664C-71.3037 48.0453 -70.9943 47.6027 -70.589 47.336C-70.1837 47.0587 -69.725 46.92 -69.213 46.92C-68.9677 46.92 -68.7383 46.952 -68.525 47.016C-68.3117 47.0693 -68.2103 47.096 -68.221 47.096L-68.733 48.872C-68.7223 48.872 -68.7863 48.8453 -68.925 48.792C-69.053 48.728 -69.2503 48.696 -69.517 48.696ZM-64.8267 46.84C-64.5174 46.84 -64.2134 46.872 -63.9147 46.936C-63.6161 47 -63.3494 47.0747 -63.1147 47.16C-62.8374 47.256 -62.5814 47.3573 -62.3467 47.464L-62.8907 48.712C-63.1041 48.616 -63.3174 48.5307 -63.5307 48.456C-63.7121 48.392 -63.9147 48.3333 -64.1387 48.28C-64.3521 48.216 -64.5654 48.184 -64.7787 48.184C-65.0241 48.184 -65.2374 48.2427 -65.4187 48.36C-65.5894 48.4773 -65.6747 48.6533 -65.6747 48.888C-65.6747 49.496 -65.2321 49.9707 -64.3467 50.312C-64.0161 50.44 -63.7174 50.5787 -63.4507 50.728C-63.1841 50.8667 -62.9601 51.032 -62.7787 51.224C-62.5867 51.416 -62.4427 51.64 -62.3467 51.896C-62.2507 52.1413 -62.2027 52.4347 -62.2027 52.776C-62.2027 53.0747 -62.2667 53.368 -62.3947 53.656C-62.5121 53.944 -62.6934 54.2 -62.9387 54.424C-63.1734 54.648 -63.4667 54.8293 -63.8187 54.968C-64.1601 55.096 -64.5494 55.16 -64.9867 55.16C-65.3387 55.16 -65.6854 55.1173 -66.0267 55.032C-66.3681 54.9573 -66.6774 54.872 -66.9547 54.776C-67.2214 54.68 -67.4347 54.5893 -67.5947 54.504L-67.8347 54.392L-67.2427 53.048L-67.0347 53.16C-66.8961 53.2453 -66.7201 53.336 -66.5067 53.432C-66.2934 53.528 -66.0641 53.6187 -65.8187 53.704C-65.5734 53.7787 -65.3494 53.816 -65.1467 53.816C-64.7734 53.816 -64.4961 53.7413 -64.3147 53.592C-64.1334 53.4427 -64.0427 53.2453 -64.0427 53C-64.0427 52.7227 -64.1441 52.472 -64.3467 52.248C-64.5387 52.0133 -64.8321 51.8213 -65.2267 51.672C-66.0481 51.3627 -66.6401 51.0107 -67.0027 50.616C-67.3547 50.2213 -67.5307 49.7093 -67.5307 49.08C-67.5307 48.7813 -67.4614 48.4987 -67.3227 48.232C-67.1841 47.9547 -66.9974 47.7147 -66.7627 47.512C-66.5174 47.2987 -66.2294 47.1333 -65.8987 47.016C-65.5681 46.8987 -65.2107 46.84 -64.8267 46.84ZM-58.905 55.064C-59.4703 55.064 -59.9023 54.8987 -60.201 54.568C-60.4997 54.2267 -60.649 53.7893 -60.649 53.256V47.032H-58.825V53.096C-58.825 53.3413 -58.7877 53.5067 -58.713 53.592C-58.6383 53.6773 -58.5263 53.72 -58.377 53.72C-58.3343 53.72 -58.2917 53.72 -58.249 53.72C-58.1957 53.72 -58.1477 53.7147 -58.105 53.704C-58.0623 53.704 -58.0143 53.6987 -57.961 53.688L-57.769 54.84C-57.8437 54.8827 -57.9397 54.92 -58.057 54.952C-58.153 54.984 -58.2757 55.0107 -58.425 55.032C-58.5637 55.0533 -58.7237 55.064 -58.905 55.064ZM-59.705 43.48C-59.3637 43.48 -59.1023 43.5813 -58.921 43.784C-58.7397 43.9867 -58.649 44.248 -58.649 44.568C-58.649 44.888 -58.745 45.1547 -58.937 45.368C-59.1183 45.5813 -59.3903 45.688 -59.753 45.688C-60.0943 45.688 -60.361 45.5867 -60.553 45.384C-60.7343 45.1707 -60.825 44.9147 -60.825 44.616C-60.825 44.2853 -60.7343 44.0133 -60.553 43.8C-60.361 43.5867 -60.0783 43.48 -59.705 43.48ZM-57.4337 47.032H-55.9937L-55.6737 45.16L-54.1697 44.824V47.032H-52.2017L-52.4257 48.328H-54.1697V53.064C-54.1697 53.3413 -54.0951 53.5227 -53.9457 53.608C-53.7964 53.6827 -53.6311 53.72 -53.4497 53.72C-53.3004 53.72 -53.1511 53.7093 -53.0017 53.688C-52.8524 53.6667 -52.7191 53.64 -52.6017 53.608C-52.4631 53.576 -52.3297 53.5387 -52.2017 53.496L-51.8977 54.696L-52.0417 54.744C-52.1377 54.7867 -52.2817 54.8347 -52.4737 54.888C-52.6551 54.9307 -52.8737 54.968 -53.1297 55C-53.3751 55.0427 -53.6471 55.064 -53.9457 55.064C-54.2444 55.064 -54.5217 55.032 -54.7777 54.968C-55.0231 54.904 -55.2364 54.8027 -55.4177 54.664C-55.5991 54.5147 -55.7431 54.328 -55.8497 54.104C-55.9457 53.88 -55.9937 53.6027 -55.9937 53.272V48.328H-57.4337V47.032ZM-44.2605 51.768C-44.2605 52.088 -44.2392 52.3813 -44.1965 52.648C-44.1432 52.9147 -44.0898 53.1813 -44.0365 53.448C-43.9725 53.704 -43.9138 53.9653 -43.8605 54.232C-43.8072 54.4987 -43.7805 54.792 -43.7805 55.112C-43.7805 56.2427 -44.0685 57.0853 -44.6445 57.64C-45.2205 58.1947 -45.9992 58.472 -46.9805 58.472C-47.3005 58.472 -47.6205 58.44 -47.9405 58.376C-48.2605 58.3227 -48.5592 58.2587 -48.8365 58.184C-49.1032 58.1093 -49.3325 58.0347 -49.5245 57.96C-49.7165 57.8853 -49.8445 57.832 -49.9085 57.8L-49.4605 56.408C-49.3112 56.472 -49.1458 56.536 -48.9645 56.6C-48.7725 56.6747 -48.5805 56.744 -48.3885 56.808C-48.1858 56.872 -47.9778 56.9253 -47.7645 56.968C-47.5512 57.0107 -47.3432 57.032 -47.1405 57.032C-46.5432 57.032 -46.1112 56.8507 -45.8445 56.488C-45.5778 56.136 -45.4445 55.6773 -45.4445 55.112C-45.4445 54.6 -45.5512 54.072 -45.7645 53.528C-46.0632 54.0933 -46.4632 54.4987 -46.9645 54.744C-47.4552 54.9787 -47.9725 55.096 -48.5165 55.096C-49.3592 55.096 -49.9618 54.8507 -50.3245 54.36C-50.6765 53.8693 -50.8525 53.1973 -50.8525 52.344V47.032H-49.0285V52.296C-49.0285 52.744 -48.9485 53.096 -48.7885 53.352C-48.6285 53.608 -48.3565 53.736 -47.9725 53.736C-47.7698 53.736 -47.5565 53.6773 -47.3325 53.56C-47.0978 53.4427 -46.8898 53.2827 -46.7085 53.08C-46.5165 52.8667 -46.3618 52.616 -46.2445 52.328C-46.1165 52.0293 -46.0525 51.7093 -46.0525 51.368V47.032H-44.1805L-44.2605 51.768ZM-34.917 46.84C-33.6903 46.84 -32.7997 47.2027 -32.245 47.928C-31.6903 48.6533 -31.413 49.6507 -31.413 50.92C-31.413 51.5173 -31.4877 52.0773 -31.637 52.6C-31.7863 53.112 -32.0157 53.56 -32.325 53.944C-32.6237 54.3173 -33.0023 54.616 -33.461 54.84C-33.9197 55.0533 -34.453 55.16 -35.061 55.16C-35.669 55.16 -36.197 55.0693 -36.645 54.888C-37.0823 54.696 -37.445 54.424 -37.733 54.072C-38.021 53.72 -38.2343 53.2933 -38.373 52.792C-38.501 52.2907 -38.565 51.7253 -38.565 51.096C-38.565 50.488 -38.4903 49.928 -38.341 49.416C-38.1917 48.8933 -37.9677 48.4453 -37.669 48.072C-37.3597 47.688 -36.9757 47.3893 -36.517 47.176C-36.0583 46.952 -35.525 46.84 -34.917 46.84ZM-35.077 48.184C-35.3863 48.184 -35.6423 48.2533 -35.845 48.392C-36.037 48.5307 -36.1917 48.728 -36.309 48.984C-36.4157 49.2293 -36.4903 49.5227 -36.533 49.864C-36.5757 50.1947 -36.597 50.552 -36.597 50.936C-36.597 51.3307 -36.5757 51.704 -36.533 52.056C-36.4797 52.408 -36.389 52.7173 -36.261 52.984C-36.133 53.24 -35.9623 53.4427 -35.749 53.592C-35.525 53.7413 -35.2423 53.816 -34.901 53.816C-34.5917 53.816 -34.341 53.7467 -34.149 53.608C-33.9463 53.4693 -33.7917 53.2773 -33.685 53.032C-33.5677 52.776 -33.4877 52.4827 -33.445 52.152C-33.4023 51.8213 -33.381 51.464 -33.381 51.08C-33.381 50.6853 -33.4077 50.312 -33.461 49.96C-33.5037 49.608 -33.589 49.2987 -33.717 49.032C-33.845 48.7653 -34.021 48.5573 -34.245 48.408C-34.4583 48.2587 -34.7357 48.184 -35.077 48.184ZM-25.6114 45.16C-25.6434 45.128 -25.7447 45.0693 -25.9154 44.984C-26.0754 44.8987 -26.23 44.856 -26.3794 44.856C-26.4754 44.856 -26.5927 44.872 -26.7314 44.904C-26.87 44.9253 -27.0034 44.984 -27.1314 45.08C-27.2594 45.1653 -27.3714 45.2933 -27.4674 45.464C-27.5527 45.6347 -27.5954 45.8587 -27.5954 46.136C-27.5954 46.2533 -27.59 46.3867 -27.5794 46.536C-27.558 46.6853 -27.5207 46.8507 -27.4674 47.032H-25.4834L-25.7074 48.328H-27.3714V54.6C-27.3714 55.24 -27.4567 55.7733 -27.6274 56.2C-27.7874 56.6373 -28.0007 57 -28.2674 57.288C-28.534 57.5867 -28.8327 57.832 -29.1634 58.024C-29.4834 58.2267 -29.8034 58.408 -30.1234 58.568L-30.8594 57.352C-30.4647 57.1493 -30.1554 56.9307 -29.9314 56.696C-29.7074 56.472 -29.542 56.2427 -29.4354 56.008C-29.318 55.784 -29.2487 55.5653 -29.2274 55.352C-29.206 55.1387 -29.1954 54.9467 -29.1954 54.776V48.328H-30.6354V47.032H-29.2434C-29.286 46.872 -29.318 46.7067 -29.3394 46.536C-29.35 46.3653 -29.3554 46.2053 -29.3554 46.056C-29.3554 45.6293 -29.2807 45.2507 -29.1314 44.92C-28.9714 44.5893 -28.7634 44.3173 -28.5074 44.104C-28.2407 43.8907 -27.9367 43.7307 -27.5954 43.624C-27.2434 43.5067 -26.8807 43.448 -26.5074 43.448C-26.0914 43.448 -25.75 43.5173 -25.4834 43.656C-25.2167 43.784 -24.998 43.9387 -24.8274 44.12L-25.6114 45.16ZM-14.0842 46.344C-14.3402 46.0667 -14.6122 45.8587 -14.9002 45.72C-15.1776 45.5707 -15.5029 45.496 -15.8762 45.496C-16.3349 45.496 -16.7242 45.6027 -17.0443 45.816C-17.3536 46.0187 -17.6042 46.3067 -17.7962 46.68C-17.9882 47.0427 -18.1269 47.4693 -18.2122 47.96C-18.2976 48.4507 -18.3402 48.9787 -18.3402 49.544C-18.3402 50.1093 -18.3029 50.6373 -18.2282 51.128C-18.1429 51.6187 -18.0042 52.0507 -17.8122 52.424C-17.6096 52.7973 -17.3429 53.0907 -17.0122 53.304C-16.6709 53.5173 -16.2442 53.624 -15.7322 53.624C-15.4869 53.624 -15.2522 53.6027 -15.0282 53.56C-14.8042 53.5173 -14.6016 53.4747 -14.4202 53.432C-14.2282 53.3787 -14.0736 53.3307 -13.9562 53.288C-13.8282 53.2453 -13.7482 53.2187 -13.7162 53.208L-13.2682 54.552L-13.4762 54.632C-13.6149 54.6853 -13.8122 54.7493 -14.0682 54.824C-14.3136 54.888 -14.6122 54.9467 -14.9642 55C-15.3056 55.064 -15.6842 55.096 -16.1002 55.096C-17.5296 55.096 -18.6069 54.6427 -19.3322 53.736C-20.0469 52.8187 -20.4042 51.48 -20.4042 49.72C-20.4042 48.8773 -20.3082 48.1093 -20.1162 47.416C-19.9242 46.712 -19.6362 46.1093 -19.2522 45.608C-18.8576 45.1067 -18.3669 44.7173 -17.7802 44.44C-17.1829 44.1627 -16.4842 44.024 -15.6842 44.024C-15.0442 44.024 -14.5216 44.1413 -14.1162 44.376C-13.7002 44.6107 -13.3642 44.8773 -13.1082 45.176L-14.0842 46.344ZM-6.028 51.144C-6.028 51.784 -5.99067 52.3227 -5.916 52.76C-5.83067 53.1867 -5.74 53.5333 -5.644 53.8C-5.52667 54.12 -5.39867 54.3707 -5.26 54.552L-6.684 55.128C-6.82267 54.9893 -6.95067 54.824 -7.068 54.632C-7.164 54.4613 -7.25467 54.2587 -7.34 54.024C-7.42533 53.7787 -7.47867 53.4907 -7.5 53.16C-7.68133 53.8 -7.97467 54.2853 -8.38 54.616C-8.77467 54.936 -9.31333 55.096 -9.996 55.096C-10.4973 55.096 -10.9347 55.0053 -11.308 54.824C-11.6707 54.632 -11.9747 54.3653 -12.22 54.024C-12.4653 53.672 -12.6467 53.2507 -12.764 52.76C-12.8813 52.2693 -12.94 51.7253 -12.94 51.128C-12.94 50.52 -12.8493 49.96 -12.668 49.448C-12.476 48.9253 -12.2147 48.4773 -11.884 48.104C-11.5427 47.7307 -11.1373 47.4373 -10.668 47.224C-10.1987 47.0107 -9.68133 46.904 -9.116 46.904C-8.796 46.904 -8.46533 46.9307 -8.124 46.984C-7.772 47.0267 -7.44667 47.0747 -7.148 47.128C-6.84933 47.1813 -6.59867 47.2347 -6.396 47.288C-6.18267 47.3307 -6.06 47.3573 -6.028 47.368V51.144ZM-9.692 53.816C-9.42533 53.816 -9.18 53.7253 -8.956 53.544C-8.732 53.3627 -8.54 53.128 -8.38 52.84C-8.20933 52.5413 -8.08133 52.2053 -7.996 51.832C-7.9 51.448 -7.852 51.0587 -7.852 50.664V48.36C-7.95867 48.328 -8.11867 48.2907 -8.332 48.248C-8.54533 48.2053 -8.73733 48.184 -8.908 48.184C-9.31333 48.184 -9.64933 48.2533 -9.916 48.392C-10.172 48.5307 -10.38 48.7227 -10.54 48.968C-10.7 49.2133 -10.812 49.5067 -10.876 49.848C-10.94 50.1893 -10.972 50.5627 -10.972 50.968C-10.972 51.3413 -10.9613 51.6987 -10.94 52.04C-10.9187 52.3813 -10.8653 52.6853 -10.78 52.952C-10.684 53.2187 -10.5507 53.432 -10.38 53.592C-10.2093 53.7413 -9.98 53.816 -9.692 53.816ZM-2.18587 55.064C-2.79387 55.064 -3.24187 54.8987 -3.52987 54.568C-3.81787 54.2267 -3.96187 53.7947 -3.96187 53.272V43.72L-2.13787 43.384V53.096C-2.13787 53.3413 -2.08987 53.512 -1.99387 53.608C-1.89787 53.704 -1.75921 53.752 -1.57787 53.752C-1.47121 53.752 -1.36987 53.7467 -1.27387 53.736C-1.16721 53.7253 -1.07121 53.7093 -0.985875 53.688C-0.889875 53.6667 -0.804541 53.6453 -0.729875 53.624L-0.505875 54.776C-0.644541 54.8293 -0.799208 54.8773 -0.969875 54.92C-1.11921 54.9627 -1.29521 54.9947 -1.49787 55.016C-1.70054 55.048 -1.92987 55.064 -2.18587 55.064ZM4.86 48.904C4.7 48.7227 4.53467 48.568 4.364 48.44C4.204 48.312 3.98533 48.248 3.708 48.248C3.548 48.248 3.36667 48.2747 3.164 48.328C2.972 48.3707 2.79067 48.488 2.62 48.68C2.44933 48.8613 2.30533 49.1333 2.188 49.496C2.08133 49.8587 2.028 50.3493 2.028 50.968C2.028 51.5973 2.08133 52.0987 2.188 52.472C2.30533 52.8347 2.44933 53.1173 2.62 53.32C2.80133 53.5227 2.99333 53.656 3.196 53.72C3.39867 53.7733 3.596 53.8 3.788 53.8C3.93733 53.8 4.092 53.7893 4.252 53.768C4.412 53.736 4.56667 53.704 4.716 53.672C4.86533 53.6293 4.99333 53.592 5.1 53.56C5.21733 53.528 5.30267 53.5013 5.356 53.48L5.804 54.632C5.772 54.6427 5.69733 54.6747 5.58 54.728C5.47333 54.7813 5.324 54.8347 5.132 54.888C4.94 54.9413 4.71067 54.9893 4.444 55.032C4.17733 55.0853 3.87867 55.112 3.548 55.112C2.92933 55.112 2.40133 55.0213 1.964 54.84C1.52667 54.648 1.164 54.3813 0.876 54.04C0.598667 53.6987 0.390667 53.288 0.252 52.808C0.124 52.328 0.06 51.7947 0.06 51.208C0.06 50.504 0.150667 49.88 0.332 49.336C0.524 48.792 0.785333 48.3387 1.116 47.976C1.44667 47.6027 1.836 47.32 2.284 47.128C2.732 46.936 3.212 46.84 3.724 46.84C4.22533 46.84 4.64667 46.936 4.988 47.128C5.34 47.32 5.63867 47.5867 5.884 47.928L4.86 48.904ZM11.8385 47.032H13.6625V51.144C13.6625 51.784 13.6998 52.3227 13.7745 52.76C13.8598 53.1867 13.9505 53.5333 14.0465 53.8C14.1638 54.12 14.2918 54.3707 14.4305 54.552L13.0065 55.128C12.8785 55.0107 12.7612 54.8613 12.6545 54.68C12.5692 54.5307 12.4785 54.3493 12.3825 54.136C12.2972 53.912 12.2385 53.6507 12.2065 53.352C11.9185 53.9813 11.5132 54.4293 10.9905 54.696C10.4678 54.9627 9.92383 55.096 9.3585 55.096C8.51583 55.096 7.91317 54.8507 7.5505 54.36C7.1985 53.8693 7.0225 53.1973 7.0225 52.344V47.032H8.8465V52.312C8.8465 52.76 8.9265 53.112 9.0865 53.368C9.2465 53.624 9.5185 53.752 9.9025 53.752C10.1372 53.752 10.3665 53.688 10.5905 53.56C10.8252 53.4213 11.0332 53.2293 11.2145 52.984C11.4065 52.7387 11.5558 52.4453 11.6625 52.104C11.7798 51.752 11.8385 51.3627 11.8385 50.936V47.032ZM15.0038 47.032H16.4438L16.7638 45.16L18.2678 44.824V47.032H20.2358L20.0118 48.328H18.2678V53.064C18.2678 53.3413 18.3424 53.5227 18.4918 53.608C18.6411 53.6827 18.8064 53.72 18.9878 53.72C19.1371 53.72 19.2864 53.7093 19.4358 53.688C19.5851 53.6667 19.7184 53.64 19.8358 53.608C19.9744 53.576 20.1078 53.5387 20.2358 53.496L20.5398 54.696L20.3958 54.744C20.2998 54.7867 20.1558 54.8347 19.9638 54.888C19.7824 54.9307 19.5638 54.968 19.3078 55C19.0624 55.0427 18.7904 55.064 18.4918 55.064C18.1931 55.064 17.9158 55.032 17.6598 54.968C17.4144 54.904 17.2011 54.8027 17.0198 54.664C16.8384 54.5147 16.6944 54.328 16.5878 54.104C16.4918 53.88 16.4438 53.6027 16.4438 53.272V48.328H15.0038V47.032ZM20.785 47.032H22.225L22.545 45.16L24.049 44.824V47.032H26.017L25.793 48.328H24.049V53.064C24.049 53.3413 24.1237 53.5227 24.273 53.608C24.4223 53.6827 24.5877 53.72 24.769 53.72C24.9183 53.72 25.0677 53.7093 25.217 53.688C25.3663 53.6667 25.4997 53.64 25.617 53.608C25.7557 53.576 25.889 53.5387 26.017 53.496L26.321 54.696L26.177 54.744C26.081 54.7867 25.937 54.8347 25.745 54.888C25.5637 54.9307 25.345 54.968 25.089 55C24.8437 55.0427 24.5717 55.064 24.273 55.064C23.9743 55.064 23.697 55.032 23.441 54.968C23.1957 54.904 22.9823 54.8027 22.801 54.664C22.6197 54.5147 22.4757 54.328 22.369 54.104C22.273 53.88 22.225 53.6027 22.225 53.272V48.328H20.785V47.032ZM33.6439 51.144C33.6439 51.784 33.6812 52.3227 33.7559 52.76C33.8412 53.1867 33.9319 53.5333 34.0279 53.8C34.1452 54.12 34.2732 54.3707 34.4119 54.552L32.9879 55.128C32.8492 54.9893 32.7212 54.824 32.6039 54.632C32.5079 54.4613 32.4172 54.2587 32.3319 54.024C32.2465 53.7787 32.1932 53.4907 32.1719 53.16C31.9905 53.8 31.6972 54.2853 31.2919 54.616C30.8972 54.936 30.3585 55.096 29.6759 55.096C29.1745 55.096 28.7372 55.0053 28.3639 54.824C28.0012 54.632 27.6972 54.3653 27.4519 54.024C27.2065 53.672 27.0252 53.2507 26.9079 52.76C26.7905 52.2693 26.7319 51.7253 26.7319 51.128C26.7319 50.52 26.8225 49.96 27.0039 49.448C27.1959 48.9253 27.4572 48.4773 27.7879 48.104C28.1292 47.7307 28.5345 47.4373 29.0039 47.224C29.4732 47.0107 29.9905 46.904 30.5559 46.904C30.8759 46.904 31.2065 46.9307 31.5479 46.984C31.8999 47.0267 32.2252 47.0747 32.5239 47.128C32.8225 47.1813 33.0732 47.2347 33.2759 47.288C33.4892 47.3307 33.6119 47.3573 33.6439 47.368V51.144ZM29.9799 53.816C30.2465 53.816 30.4919 53.7253 30.7159 53.544C30.9399 53.3627 31.1319 53.128 31.2919 52.84C31.4625 52.5413 31.5905 52.2053 31.6759 51.832C31.7719 51.448 31.8199 51.0587 31.8199 50.664V48.36C31.7132 48.328 31.5532 48.2907 31.3399 48.248C31.1265 48.2053 30.9345 48.184 30.7639 48.184C30.3585 48.184 30.0225 48.2533 29.7559 48.392C29.4999 48.5307 29.2919 48.7227 29.1319 48.968C28.9719 49.2133 28.8599 49.5067 28.7959 49.848C28.7319 50.1893 28.6999 50.5627 28.6999 50.968C28.6999 51.3413 28.7105 51.6987 28.7319 52.04C28.7532 52.3813 28.8065 52.6853 28.8919 52.952C28.9879 53.2187 29.1212 53.432 29.2919 53.592C29.4625 53.7413 29.6919 53.816 29.9799 53.816ZM36.142 53.032C36.1527 53.0213 36.238 52.9733 36.398 52.888C36.558 52.792 36.8247 52.744 37.198 52.744C37.5713 52.744 37.8433 52.856 38.014 53.08C38.1847 53.304 38.27 53.5867 38.27 53.928C38.27 54.3653 38.206 54.76 38.078 55.112C37.9607 55.464 37.8007 55.784 37.598 56.072C37.3953 56.36 37.1607 56.6107 36.894 56.824C36.638 57.0373 36.366 57.2133 36.078 57.352L35.39 56.424C35.806 56.1147 36.0833 55.8053 36.222 55.496C36.3713 55.1867 36.446 54.888 36.446 54.6C36.446 54.2907 36.398 54.0027 36.302 53.736C36.206 53.4693 36.1527 53.2347 36.142 53.032ZM-111.88 63.168H-109.976V74H-111.88V63.168ZM-104.376 63.168C-104.547 63.968 -104.739 64.6507 -104.952 65.216C-105.155 65.7707 -105.379 66.2453 -105.624 66.64C-105.869 67.024 -106.141 67.3547 -106.44 67.632C-106.728 67.8987 -107.037 68.144 -107.368 68.368L-103.432 74H-105.64L-109.768 68.144V68.032C-108.787 67.6693 -108.029 67.0773 -107.496 66.256C-106.952 65.424 -106.536 64.3947 -106.248 63.168H-104.376ZM-99.8232 65.84C-98.5966 65.84 -97.7059 66.2027 -97.1512 66.928C-96.5966 67.6533 -96.3192 68.6507 -96.3192 69.92C-96.3192 70.5173 -96.3939 71.0773 -96.5432 71.6C-96.6926 72.112 -96.9219 72.56 -97.2312 72.944C-97.5299 73.3173 -97.9086 73.616 -98.3672 73.84C-98.8259 74.0533 -99.3592 74.16 -99.9672 74.16C-100.575 74.16 -101.103 74.0693 -101.551 73.888C-101.989 73.696 -102.351 73.424 -102.639 73.072C-102.927 72.72 -103.141 72.2933 -103.279 71.792C-103.407 71.2907 -103.471 70.7253 -103.471 70.096C-103.471 69.488 -103.397 68.928 -103.247 68.416C-103.098 67.8933 -102.874 67.4453 -102.575 67.072C-102.266 66.688 -101.882 66.3893 -101.423 66.176C-100.965 65.952 -100.431 65.84 -99.8232 65.84ZM-99.9832 67.184C-100.293 67.184 -100.549 67.2533 -100.751 67.392C-100.943 67.5307 -101.098 67.728 -101.215 67.984C-101.322 68.2293 -101.397 68.5227 -101.439 68.864C-101.482 69.1947 -101.503 69.552 -101.503 69.936C-101.503 70.3307 -101.482 70.704 -101.439 71.056C-101.386 71.408 -101.295 71.7173 -101.167 71.984C-101.039 72.24 -100.869 72.4427 -100.655 72.592C-100.431 72.7413 -100.149 72.816 -99.8073 72.816C-99.4979 72.816 -99.2472 72.7467 -99.0552 72.608C-98.8526 72.4693 -98.6979 72.2773 -98.5912 72.032C-98.4739 71.776 -98.3939 71.4827 -98.3512 71.152C-98.3086 70.8213 -98.2872 70.464 -98.2872 70.08C-98.2872 69.6853 -98.3139 69.312 -98.3672 68.96C-98.4099 68.608 -98.4952 68.2987 -98.6232 68.032C-98.7512 67.7653 -98.9272 67.5573 -99.1512 67.408C-99.3646 67.2587 -99.6419 67.184 -99.9832 67.184ZM-93.0296 74.064C-93.6376 74.064 -94.0856 73.8987 -94.3736 73.568C-94.6616 73.2267 -94.8056 72.7947 -94.8056 72.272V62.72L-92.9816 62.384V72.096C-92.9816 72.3413 -92.9336 72.512 -92.8376 72.608C-92.7416 72.704 -92.603 72.752 -92.4216 72.752C-92.315 72.752 -92.2136 72.7467 -92.1176 72.736C-92.011 72.7253 -91.915 72.7093 -91.8296 72.688C-91.7336 72.6667 -91.6483 72.6453 -91.5736 72.624L-91.3496 73.776C-91.4883 73.8293 -91.643 73.8773 -91.8136 73.92C-91.963 73.9627 -92.139 73.9947 -92.3416 74.016C-92.5443 74.048 -92.7736 74.064 -93.0296 74.064ZM-88.2454 62.4V66.96C-88.16 66.8533 -88.0534 66.7413 -87.9254 66.624C-87.7867 66.496 -87.616 66.3787 -87.4134 66.272C-87.2107 66.1653 -86.976 66.0747 -86.7094 66C-86.4427 65.9253 -86.1334 65.888 -85.7814 65.888C-85.4507 65.888 -85.1414 65.936 -84.8534 66.032C-84.5654 66.128 -84.32 66.2667 -84.1174 66.448C-83.904 66.6293 -83.7387 66.8533 -83.6214 67.12C-83.4934 67.376 -83.4294 67.6693 -83.4294 68C-83.4294 68.48 -83.5307 68.8747 -83.7334 69.184C-83.9254 69.4933 -84.144 69.7387 -84.3894 69.92C-84.6667 70.1333 -84.9867 70.304 -85.3494 70.432L-83.1094 74H-85.1734L-87.4774 70.016L-87.4934 69.856C-87.408 69.8347 -87.248 69.7867 -87.0134 69.712C-86.768 69.6373 -86.5174 69.5307 -86.2614 69.392C-86.0054 69.2533 -85.7814 69.0827 -85.5894 68.88C-85.3867 68.6667 -85.2854 68.416 -85.2854 68.128C-85.2854 67.8187 -85.376 67.584 -85.5574 67.424C-85.7387 67.264 -85.9787 67.184 -86.2774 67.184C-86.6827 67.184 -87.0134 67.264 -87.2694 67.424C-87.5254 67.584 -87.728 67.7653 -87.8774 67.968C-88.016 68.1707 -88.112 68.3627 -88.1654 68.544C-88.2187 68.7253 -88.2454 68.832 -88.2454 68.864V74H-90.0694V62.72L-88.2454 62.4ZM-75.7311 70.144C-75.7311 70.784 -75.6938 71.3227 -75.6191 71.76C-75.5338 72.1867 -75.4431 72.5333 -75.3471 72.8C-75.2298 73.12 -75.1018 73.3707 -74.9631 73.552L-76.3871 74.128C-76.5258 73.9893 -76.6538 73.824 -76.7711 73.632C-76.8671 73.4613 -76.9578 73.2587 -77.0431 73.024C-77.1285 72.7787 -77.1818 72.4907 -77.2031 72.16C-77.3845 72.8 -77.6778 73.2853 -78.0831 73.616C-78.4778 73.936 -79.0165 74.096 -79.6991 74.096C-80.2005 74.096 -80.6378 74.0053 -81.0111 73.824C-81.3738 73.632 -81.6778 73.3653 -81.9231 73.024C-82.1685 72.672 -82.3498 72.2507 -82.4671 71.76C-82.5845 71.2693 -82.6431 70.7253 -82.6431 70.128C-82.6431 69.52 -82.5525 68.96 -82.3711 68.448C-82.1791 67.9253 -81.9178 67.4773 -81.5871 67.104C-81.2458 66.7307 -80.8405 66.4373 -80.3711 66.224C-79.9018 66.0107 -79.3845 65.904 -78.8191 65.904C-78.4991 65.904 -78.1685 65.9307 -77.8271 65.984C-77.4751 66.0267 -77.1498 66.0747 -76.8511 66.128C-76.5525 66.1813 -76.3018 66.2347 -76.0991 66.288C-75.8858 66.3307 -75.7631 66.3573 -75.7311 66.368V70.144ZM-79.3951 72.816C-79.1285 72.816 -78.8831 72.7253 -78.6591 72.544C-78.4351 72.3627 -78.2431 72.128 -78.0831 71.84C-77.9125 71.5413 -77.7845 71.2053 -77.6991 70.832C-77.6031 70.448 -77.5551 70.0587 -77.5551 69.664V67.36C-77.6618 67.328 -77.8218 67.2907 -78.0351 67.248C-78.2485 67.2053 -78.4405 67.184 -78.6111 67.184C-79.0165 67.184 -79.3525 67.2533 -79.6191 67.392C-79.8751 67.5307 -80.0831 67.7227 -80.2431 67.968C-80.4031 68.2133 -80.5151 68.5067 -80.5791 68.848C-80.6431 69.1893 -80.6751 69.5627 -80.6751 69.968C-80.6751 70.3413 -80.6645 70.6987 -80.6431 71.04C-80.6218 71.3813 -80.5685 71.6853 -80.4831 71.952C-80.3871 72.2187 -80.2538 72.432 -80.0831 72.592C-79.9125 72.7413 -79.6831 72.816 -79.3951 72.816ZM-74.465 66.032H-73.025L-72.705 64.16L-71.201 63.824V66.032H-69.233L-69.457 67.328H-71.201V72.064C-71.201 72.3413 -71.1263 72.5227 -70.977 72.608C-70.8277 72.6827 -70.6623 72.72 -70.481 72.72C-70.3317 72.72 -70.1823 72.7093 -70.033 72.688C-69.8837 72.6667 -69.7503 72.64 -69.633 72.608C-69.4943 72.576 -69.361 72.5387 -69.233 72.496L-68.929 73.696L-69.073 73.744C-69.169 73.7867 -69.313 73.8347 -69.505 73.888C-69.6863 73.9307 -69.905 73.968 -70.161 74C-70.4063 74.0427 -70.6783 74.064 -70.977 74.064C-71.2757 74.064 -71.553 74.032 -71.809 73.968C-72.0543 73.904 -72.2677 73.8027 -72.449 73.664C-72.6303 73.5147 -72.7743 73.328 -72.881 73.104C-72.977 72.88 -73.025 72.6027 -73.025 72.272V67.328H-74.465V66.032ZM-61.6061 70.144C-61.6061 70.784 -61.5688 71.3227 -61.4941 71.76C-61.4088 72.1867 -61.3181 72.5333 -61.2221 72.8C-61.1048 73.12 -60.9768 73.3707 -60.8381 73.552L-62.2621 74.128C-62.4008 73.9893 -62.5288 73.824 -62.6461 73.632C-62.7421 73.4613 -62.8328 73.2587 -62.9181 73.024C-63.0035 72.7787 -63.0568 72.4907 -63.0781 72.16C-63.2595 72.8 -63.5528 73.2853 -63.9581 73.616C-64.3528 73.936 -64.8915 74.096 -65.5741 74.096C-66.0755 74.096 -66.5128 74.0053 -66.8861 73.824C-67.2488 73.632 -67.5528 73.3653 -67.7981 73.024C-68.0435 72.672 -68.2248 72.2507 -68.3421 71.76C-68.4595 71.2693 -68.5181 70.7253 -68.5181 70.128C-68.5181 69.52 -68.4275 68.96 -68.2461 68.448C-68.0541 67.9253 -67.7928 67.4773 -67.4621 67.104C-67.1208 66.7307 -66.7155 66.4373 -66.2461 66.224C-65.7768 66.0107 -65.2595 65.904 -64.6941 65.904C-64.3741 65.904 -64.0435 65.9307 -63.7021 65.984C-63.3501 66.0267 -63.0248 66.0747 -62.7261 66.128C-62.4275 66.1813 -62.1768 66.2347 -61.9741 66.288C-61.7608 66.3307 -61.6381 66.3573 -61.6061 66.368V70.144ZM-65.2701 72.816C-65.0035 72.816 -64.7581 72.7253 -64.5341 72.544C-64.3101 72.3627 -64.1181 72.128 -63.9581 71.84C-63.7875 71.5413 -63.6595 71.2053 -63.5741 70.832C-63.4781 70.448 -63.4301 70.0587 -63.4301 69.664V67.36C-63.5368 67.328 -63.6968 67.2907 -63.9101 67.248C-64.1235 67.2053 -64.3155 67.184 -64.4861 67.184C-64.8915 67.184 -65.2275 67.2533 -65.4941 67.392C-65.7501 67.5307 -65.9581 67.7227 -66.1181 67.968C-66.2781 68.2133 -66.3901 68.5067 -66.4541 68.848C-66.5181 69.1893 -66.5501 69.5627 -66.5501 69.968C-66.5501 70.3413 -66.5395 70.6987 -66.5181 71.04C-66.4968 71.3813 -66.4435 71.6853 -66.3581 71.952C-66.2621 72.2187 -66.1288 72.432 -65.9581 72.592C-65.7875 72.7413 -65.5581 72.816 -65.2701 72.816Z" fill="black"/>
</g>
</svg>
