<svg width="1441" height="105" viewBox="0 0 1441 105" fill="none" xmlns="http://www.w3.org/2000/svg">
<path d="M0 67.586C0 67.586 37.1051 51.0003 71.1605 49.8432C105.724 48.6861 135.205 49.8432 177.393 55.6289C234.83 63.3431 345.637 94.5858 404.598 77.6144C463.56 60.6431 466.101 59.8717 496.09 49.0718C529.637 36.729 597.748 12.0434 682.124 13.2005C772.091 14.3577 935.252 77.2287 1002.35 74.143C1009.46 73.7573 1035.89 71.0573 1055.72 66.4287C1075.03 61.8002 1103.5 51.7717 1142.13 48.3003C1158.39 46.7574 1184.31 44.0575 1214.3 44.8289C1221.93 45.2146 1246.33 46.3717 1275.3 51.0003C1304.27 55.6288 1331.21 62.9573 1355.61 65.2716C1407.96 69.5144 1441 63.343 1441 63.343V105L4.33854e-06 105L0 67.586ZM115.382 61.4146C118.94 65.2717 125.547 62.9574 137.238 62.9574C148.929 62.9574 168.244 67.5859 166.719 67.2002C165.194 66.8145 150.962 61.4146 136.221 59.8717C120.973 57.9431 112.332 57.5574 115.382 61.4146ZM208.907 71.8288C208.907 71.8288 221.106 72.6002 237.371 75.3002C253.636 78.3859 289.725 86.1001 314.123 88.8001C355.802 93.0429 394.432 88.8001 390.874 88.4144C386.808 88.0287 342.079 90.7286 301.415 84.1715C284.642 81.4716 254.145 75.6859 238.388 73.7573C221.614 71.4431 208.907 71.8288 208.907 71.8288ZM499.648 72.2145C491.007 74.9144 567.251 54.086 593.682 48.686C604.356 46.3718 625.196 42.5146 644.511 40.9718C664.334 39.4289 689.749 39.4289 689.24 39.0432C689.24 38.2718 659.759 35.9575 632.312 39.0432C604.864 42.1289 605.881 43.2861 593.682 45.2146C574.367 48.3003 508.289 69.5145 499.648 72.2145ZM428.996 78.3858C427.98 78.3858 433.062 79.9287 453.394 74.143C473.726 68.3573 487.449 60.6431 488.466 59.8717C489.483 59.486 470.676 66.8145 454.919 71.443C439.67 76.0716 429.504 78.3858 428.996 78.3858ZM2.54144 81.8573C3.04973 81.4716 12.1988 77.6145 26.9392 72.2145C41.6796 66.8145 62.0113 61.4146 60.9947 61.8003C59.978 61.8003 43.2045 64.1145 23.3813 71.4431C3.55801 78.7716 2.03315 82.243 2.54144 81.8573ZM1281.91 60.2573C1281.4 61.0288 1291.56 61.0288 1304.78 64.8859C1317.99 68.743 1332.23 71.0573 1344.43 72.6001C1364.76 75.6858 1403.9 72.2144 1401.86 71.8287C1400.34 71.443 1360.18 72.9858 1338.33 69.1287C1327.14 67.2001 1326.13 67.2002 1309.35 62.9573C1292.58 58.7145 1282.41 59.1002 1281.91 60.2573ZM1069.95 69.5144C1067.92 69.9002 1052.16 75.6858 1027.25 79.5429C1002.35 83.7858 982.015 81.4715 982.015 82.6286C982.015 83.7858 987.098 86.1001 1013.53 83.7858C1039.96 81.4715 1071.98 69.1287 1069.95 69.5144ZM1077.06 79.1572C1076.05 78.7715 1059.78 84.1715 1048.09 85.7143C1036.4 86.8715 1038.43 87.6429 1038.43 88.0286C1038.43 88.4143 1044.03 88.8 1052.16 87.2572C1060.8 85.3286 1078.08 79.5429 1077.06 79.1572ZM965.241 88.0286C964.733 87.2572 947.451 84.9429 936.777 81.0858C926.103 77.2287 927.628 78.7715 927.12 79.1572C926.611 79.543 931.186 82.2429 939.319 84.1715C947.451 86.4858 965.75 88.8 965.241 88.0286ZM1108.58 62.1859C1109.09 61.0288 1107.05 60.2574 1098.92 62.9573C1090.79 65.6573 1085.71 67.9716 1087.74 67.5859C1089.77 67.2002 1092.31 66.043 1100.45 64.5002C1109.09 62.9573 1108.07 63.343 1108.58 62.1859ZM1265.64 57.1716C1266.66 57.1716 1254.97 54.086 1248.87 53.7002C1242.77 53.3145 1238.7 53.3145 1238.7 54.4717C1238.7 55.6288 1239.21 56.4002 1246.83 56.0145C1254.97 55.6288 1264.62 57.1716 1265.64 57.1716ZM667.384 23.6148C667.892 23.229 679.583 24.7719 705.505 24.7719C730.92 24.7719 774.633 34.029 792.931 38.2718C811.23 42.5146 742.102 23.229 709.064 22.4576C676.025 21.6862 666.875 24.0005 667.384 23.6148Z" fill="#F1F6E8"/>
<path d="M70.6523 35.5719C71.1605 35.9576 94.0336 34.4147 107.249 35.5719C144.354 38.2719 193.658 47.9146 191.625 46.7575C189.592 45.6004 121.99 34.8004 105.216 34.029C80.3098 32.4862 70.144 35.5719 70.6523 35.5719Z" fill="#F1F6E8"/>
<path d="M285.15 67.2002C286.167 67.5859 308.023 71.0573 333.438 71.8288C358.852 72.6002 397.99 69.5145 395.957 69.9002C394.432 70.2859 365.968 76.843 328.355 74.5287C290.741 72.2145 284.134 66.8145 285.15 67.2002Z" fill="#F1F6E8"/>
<path d="M401.549 53.3146C402.057 53.7003 391.383 57.1717 385.283 57.5574C379.184 57.9431 375.117 57.5574 375.117 56.4003C375.117 55.2431 375.626 54.4717 383.25 54.8574C391.891 55.2431 401.04 52.9289 401.549 53.3146Z" fill="#F1F6E8"/>
<path d="M419.339 64.1145C419.339 64.5002 441.703 59.486 451.361 55.6289C461.018 52.1574 482.875 43.6718 482.366 43.6718C481.858 43.2861 461.018 49.8432 450.344 53.7003C439.67 57.5574 419.339 63.7288 419.339 64.1145Z" fill="#F1F6E8"/>
<path d="M655.693 2.0149C656.201 2.40061 679.074 0.857762 692.29 2.0149C729.395 4.71488 778.699 14.3577 776.666 13.2005C774.633 12.0434 707.03 1.24347 690.257 0.472051C665.351 -1.07079 655.185 1.62919 655.693 2.0149Z" fill="#F1F6E8"/>
<path d="M1228.03 30.5575C1228.03 30.5575 1221.93 31.7147 1213.29 30.9432C1204.65 30.1718 1183.81 27.4718 1171.61 28.2433C1150.26 29.7861 1133.99 38.6575 1136.03 38.2718C1138.06 38.2718 1157.88 29.7861 1179.74 30.9432C1188.89 31.329 1205.66 32.8718 1213.79 32.4861C1221.93 32.1004 1228.03 30.5575 1228.03 30.5575Z" fill="#F1F6E8"/>
<path d="M1057.24 56.4002C1056.23 56.0145 1047.08 59.4859 1035.39 60.6431C1023.69 61.4145 1024.71 61.8002 1024.71 62.5716C1024.71 62.9573 1033.86 64.1145 1041.99 62.5716C1050.13 60.6431 1058.26 56.7859 1057.24 56.4002Z" fill="#F1F6E8"/>
<path d="M1361.71 54.0859C1361.71 54.4717 1339.85 54.086 1327.65 52.1574C1315.45 50.2288 1302.24 44.8289 1302.24 44.4432C1302.24 44.0574 1315.96 47.5289 1328.16 49.8431C1339.85 52.1574 1361.2 53.7002 1361.71 54.0859Z" fill="#F1F6E8"/>
</svg>
