<svg width="16" height="16" viewBox="0 0 16 16" fill="none" xmlns="http://www.w3.org/2000/svg">
<path fill-rule="evenodd" clip-rule="evenodd" d="M3.90896 4.24131C4.49563 3.62331 4.70296 3.44998 4.95296 3.36931C5.12598 3.32398 5.30743 3.32146 5.48163 3.36198C5.71096 3.42864 5.77163 3.47931 6.52363 4.22864C7.1843 4.88664 7.2503 4.95798 7.31363 5.08664C7.43473 5.31249 7.45365 5.5793 7.36563 5.81998C7.29896 6.00331 7.2043 6.12464 6.80363 6.52664L6.5423 6.78864C6.47367 6.85839 6.45754 6.9643 6.5023 7.05131C7.08292 8.04188 7.90668 8.86793 8.89563 9.45131C9.00946 9.51226 9.14965 9.49258 9.2423 9.40264L9.49363 9.15531C9.64897 8.99608 9.81347 8.84605 9.9863 8.70598C10.2577 8.53932 10.5959 8.52445 10.881 8.66665C11.0203 8.73331 11.0663 8.77465 11.7476 9.45465C12.4503 10.1553 12.4703 10.1773 12.5476 10.338C12.6932 10.6039 12.6916 10.9261 12.5436 11.1906C12.4683 11.34 12.4223 11.394 12.027 11.798C11.7883 12.042 11.5636 12.2646 11.5276 12.2973C11.2015 12.5673 10.7831 12.6998 10.361 12.6666C9.58865 12.5963 8.84114 12.3575 8.17096 11.9673C6.68639 11.1808 5.42256 10.0348 4.49496 8.63398C4.29293 8.34082 4.11331 8.03284 3.95763 7.71265C3.54002 6.99689 3.32436 6.18127 3.33363 5.35264C3.36551 4.91915 3.5734 4.51759 3.90896 4.24131Z" stroke="black" stroke-width="1.5" stroke-linecap="round" stroke-linejoin="round"/>
</svg>
